# xmcd
#
# Track frame offsets:
#	150
#	34197
#	59835
#	85301
#	104601
#	136144
#	158600
#	172123
#
# Disc length: 2382 seconds
#
# Revision: 0
# Processed by: cddbd v1.4PL0 Copyright (c) Steve Scherf et al.
# Submitted via: dBpowerAMP V4.0
#
DISCID=6c094c08
DTITLE=Oleg Kireyev - Love Letters
DYEAR=1900
DGENRE=Instrumental
TTITLE0=Prelude
TTITLE1=Night flights
TTITLE2=Dance under the water
TTITLE3=Where are you
TTITLE4=Love
TTITLE5=O mama mia
TTITLE6=Somewhere
TTITLE7=Every day we say "goodbay"
EXTD=SquareMan
EXTT0=
EXTT1=
EXTT2=
EXTT3=
EXTT4=
EXTT5=
EXTT6=
EXTT7=
PLAYORDER=
